<?xml version="1.0" encoding="utf-8"?>
<!-- Generator: Adobe Illustrator 18.1.0, SVG Export Plug-In . SVG Version: 6.00 Build 0)  -->
<svg version="1.1" id="Layer_1" xmlns="http://www.w3.org/2000/svg" xmlns:xlink="http://www.w3.org/1999/xlink" x="0px" y="0px"
	 viewBox="0 0 1500 1500" enable-background="new 0 0 1500 1500" xml:space="preserve">
<g>
	<path fill="#D8A4C2" d="M409.2,914.7c0,0-127.3-651.4,591.3-657.4C1000.5,257.2,1080.7,981.7,409.2,914.7z"/>
	<path fill="#D78BB9" d="M411.2,891.2c0,0-357.8-559,308.2-828.8C719.4,62.5,1060.3,706.7,411.2,891.2z"/>
	<path fill="#D78BB9" d="M407.6,920.3c0,0,136.1-649.6,800.5-375.7C1208,544.7,1000.1,1243.3,407.6,920.3z"/>
	<path fill="#D8A4C2" d="M415.9,917.9c0,0,429.5-506,882.8,51.7C1298.7,969.6,782.7,1484.4,415.9,917.9z"/>
	<path fill="#CB89B0" d="M417.1,917.7c0,0,628.8-212.2,729.8,499.3C1146.9,1417.1,439.3,1592.2,417.1,917.7z"/>
	<path fill="#FFFFFE" d="M414.5,557.1c0,0,81.4,37.1,118.8,121.9c0,0,26.3-16.7,15.6-47c0,0,23.1,15.1-3.8,55.7
		c0,0-6.8,18.5,23.9,26.7c30.7,8.2,103.1,12.2,91.8,31.9c-11.2,19.7-27.9,45.6-9.8,59.7c4.5,3.5,28.3,15.2,21.1,25.1
		c-8.6,11.9-19.5,24.3-19.5,24.3s27.5-12.3,23.5,7.8c-4,20.1,0,26.1,11.9,34.8c11.8,8.6,47.4,34.5,13.7,67.5
		c-33.7,33-82.2,29.6-108.2,55.7c-26.1,26.1-61,159.1,46.7,231.8c0,0-255.4-51.1-236.6-301.2c18.8-250,33.2-376.4-66-431"/>
</g>
</svg>
